<svg id="Capa_1" data-name="Capa 1" xmlns="http://www.w3.org/2000/svg" viewBox="0 0 217.99 67.89"><defs><style>.cls-1{fill:#3c3c3d;}.cls-2{fill:#727273;}.cls-3{fill:#3d3d3d;}.cls-4{fill:#3a3a3b;}.cls-5{fill:#3e3e3f;}.cls-6{fill:#eb242c;}.cls-7{fill:#c3161c;}.cls-8{fill:#434344;}.cls-9{fill:#fcfcfc;}.cls-10{fill:#f5f5f5;}</style></defs><title>centiel_logo</title><path class="cls-1" d="M28.2,86.55l-.07-.4c.24-.44,0-.75-.26-1.06l-.06-.34c-.16-1.17.14-2.41-.56-3.49V77.85a3.37,3.37,0,0,0,.32-2.45l.05-.31a12.57,12.57,0,0,0,.85-3.48l.12-.55a1.08,1.08,0,0,0,.48-1.19l.07-.32a.35.35,0,0,0,.18-.49l.14-.33a.35.35,0,0,0,.25-.55l.36-.74c.45-.14.54-.5.56-.9a.19.19,0,0,1,.08-.16c.32-.08.38-.28.26-.56,2.87-4.59,6.76-7.76,12.22-8.67A14.41,14.41,0,0,1,53.33,59.4a21,21,0,0,1,7.05,7.77c.5.86.33,1.3-.53,1.71A24.22,24.22,0,0,0,57,70.49c-.84.57-1.21.34-1.62-.53A13.14,13.14,0,0,0,50,64a9.62,9.62,0,0,0-11.79,1.7c-3.48,3.4-5,7.68-5.27,12.41A19.31,19.31,0,0,0,37.09,92c4.69,5.74,11.86,5.64,16.42-.15a14.77,14.77,0,0,0,2.06-3.31c.28-.64.61-.67,1.15-.34q1.77,1,3.57,2.07c.39.23.59.46.34.93-2.11,3.91-4.83,7.2-8.94,9.17a14.17,14.17,0,0,1-13.93-.55,20,20,0,0,1-9.29-12.54C28.55,87,28.58,86.68,28.2,86.55Z" transform="translate(-27.25 -48.01)"/><path class="cls-2" d="M27.25,81.26c.7,1.08.4,2.32.56,3.49-.46-.25,0-.93-.56-1.15Z" transform="translate(-27.25 -48.01)"/><path class="cls-2" d="M27.57,75.4a3.37,3.37,0,0,1-.32,2.45V75.51Z" transform="translate(-27.25 -48.01)"/><path class="cls-3" d="M216.7,82.27c-4.64,0-9.29,0-13.93,0-1,0-1.12.29-1,1.16.83,4.38,2.59,8.27,6.31,10.93s8.26,2.68,12.28-.74a14.47,14.47,0,0,0,3.65-4.9c.32-.69.63-.86,1.33-.39,1.09.72,2.25,1.33,3.39,2,.39.22.63.44.38.91-2.42,4.63-5.76,8.35-10.88,10-5.8,1.86-11,.31-15.26-3.8-5.78-5.53-7.69-12.56-7.1-20.34a23.38,23.38,0,0,1,6.23-14.66c6.24-6.63,15.38-7.38,22.24-1,5.8,5.38,7.7,12.33,7.35,20,0,.81-.44.88-1.09.88C226,82.26,221.35,82.27,216.7,82.27Zm-2.9-5.66h11.27c.5,0,.92,0,.78-.71C225,71.19,223.17,67,219,64.26a9.18,9.18,0,0,0-10.92.29c-3.7,2.69-5.47,6.55-6.31,10.94-.16.87,0,1.16.94,1.14C206.43,76.58,210.11,76.61,213.8,76.61Z" transform="translate(-27.25 -48.01)"/><path class="cls-3" d="M88.56,82.27c-4.65,0-9.29,0-13.94,0-.79,0-1.06.14-.91,1a17.37,17.37,0,0,0,5.78,10.68,9.68,9.68,0,0,0,12.9-.4,15.62,15.62,0,0,0,3.7-5.12c.23-.52.52-.52.9-.3,1.32.75,2.62,1.54,3.94,2.29.33.18.35.37.19.69-2.47,4.75-5.9,8.48-11.15,10.14-6.13,2-12.3-.5-16.32-5.18-5.1-5.94-6.57-12.91-5.61-20.55a23,23,0,0,1,5.83-12.94c4.6-5,11.42-7.46,18.49-4,4.54,2.24,7.47,6,9.38,10.67a27.15,27.15,0,0,1,1.93,11.66c0,1-.26,1.39-1.39,1.38C97.71,82.23,93.13,82.27,88.56,82.27Zm-2.81-5.66H97c.46,0,.93.11.77-.69A18.9,18.9,0,0,0,93,65.85a9.71,9.71,0,0,0-13.75-.62,17.09,17.09,0,0,0-5.49,10.38c-.15.83,0,1,.87,1C78.3,76.59,82,76.61,85.75,76.61Z" transform="translate(-27.25 -48.01)"/><path class="cls-3" d="M146.41,88.61c0,4,0,8,0,12,0,1.06-.32,1.35-1.32,1.27a20,20,0,0,0-3.19,0c-.92.06-1.21-.2-1.2-1.17,0-6.91,0-13.83,0-20.75a20.23,20.23,0,0,0-3.54-12.25c-2.42-3.38-5.63-5.49-10-5a10.38,10.38,0,0,0-6.75,3.86A18.7,18.7,0,0,0,116.09,79c-.08,7.24,0,14.47,0,21.71,0,1-.3,1.27-1.25,1.21a34.24,34.24,0,0,0-3.51,0c-.65,0-1-.13-1-.88,0-7.45-.1-14.9.06-22.34a23.73,23.73,0,0,1,6.36-16.36c5.45-5.75,13.45-7.39,20.54-2.31,4.84,3.46,7.32,8.4,8.57,14.06a37.14,37.14,0,0,1,.52,8Z" transform="translate(-27.25 -48.01)"/><path class="cls-4" d="M245.22,75c0,8.61,0,17.23,0,25.85,0,.83-.2,1.11-1.05,1.06-1.24-.08-2.48-.05-3.72,0-.67,0-.91-.23-.83-.86,0-.14,0-.29,0-.43V49.43c0-1.67-.15-1.36,1.43-1.39,1.06,0,2.13.06,3.19,0,.83-.06,1,.24,1,1,0,6.52,0,13,0,19.57Z" transform="translate(-27.25 -48.01)"/><path class="cls-1" d="M155.53,62.66c1.74,1.78,3.32,3.43,5,5a1.81,1.81,0,0,1,.51,1.43c0,3.19,0,6.38,0,9.57a21.44,21.44,0,0,0,2.4,10.66c2,3.7,4.87,6.31,9.23,6.87.54.06.72.23.71.77,0,1.34-.06,2.7,0,4,0,.77-.3.88-.94.83a15.77,15.77,0,0,1-10.07-4.7,23.2,23.2,0,0,1-6.9-16.42c-.16-5.84-.05-11.7-.05-17.55A3.38,3.38,0,0,1,155.53,62.66Z" transform="translate(-27.25 -48.01)"/><path class="cls-5" d="M182.25,85c0-5.18,0-10.36,0-15.54,0-.94.18-1.35,1.22-1.26a27.41,27.41,0,0,0,3.51,0c.79,0,1,.23,1,1,0,5.43,0,10.85,0,16.28,0,5.11,0,10.22,0,15.32,0,.83-.19,1.14-1.06,1.09a33.44,33.44,0,0,0-3.61,0c-.82,0-1.09-.19-1.08-1.06C182.27,95.55,182.25,90.27,182.25,85Z" transform="translate(-27.25 -48.01)"/><path class="cls-6" d="M161,57c2.66,0,5.32.05,8,0,.84,0,1,.26,1,1a33.44,33.44,0,0,0,0,3.61c.06.92-.3,1.13-1.16,1.1q-3.24-.08-6.48,0a2.64,2.64,0,0,1-2.17-.8c-1.37-1.42-2.81-2.78-4.2-4.18a4.64,4.64,0,0,1-.45-.7Z" transform="translate(-27.25 -48.01)"/><path class="cls-7" d="M161,57l-5.49.05a.1.1,0,0,1,0-.1c.24-2.94.06-5.88.1-8.82,1.58,0,3.17,0,4.75-.07.66,0,.64.34.64.79C161,51.54,161,54.25,161,57Z" transform="translate(-27.25 -48.01)"/><path class="cls-8" d="M182.24,59.7c.09-.75-.39-1.91.18-2.51s1.75-.2,2.65-.19,2.14-.44,2.74.22S188,59,188,59.9c0,2.79,0,2.79-2.82,2.79H185C182.24,62.69,182.24,62.69,182.24,59.7Z" transform="translate(-27.25 -48.01)"/><path class="cls-6" d="M155.6,48.1c0,2.94.14,5.88-.1,8.82a6.07,6.07,0,0,1-.15-2.4c0-1.84,0-3.68,0-5.51C155.36,48.71,155.1,48.29,155.6,48.1Z" transform="translate(-27.25 -48.01)"/><path class="cls-2" d="M28.47,71.61a12.57,12.57,0,0,1-.85,3.48A7.17,7.17,0,0,1,28.47,71.61Z" transform="translate(-27.25 -48.01)"/><path class="cls-2" d="M29.07,69.87a1.08,1.08,0,0,1-.48,1.19A1.53,1.53,0,0,1,29.07,69.87Z" transform="translate(-27.25 -48.01)"/><path class="cls-2" d="M27.87,85.09c.25.31.5.62.26,1.06A1.07,1.07,0,0,1,27.87,85.09Z" transform="translate(-27.25 -48.01)"/><path class="cls-2" d="M30.63,66.54c0,.4-.11.76-.56.9A1.1,1.1,0,0,1,30.63,66.54Z" transform="translate(-27.25 -48.01)"/><path class="cls-2" d="M28.2,86.55c.38.13.35.42.27.73A.58.58,0,0,1,28.2,86.55Z" transform="translate(-27.25 -48.01)"/><path class="cls-2" d="M29.32,69.06a.35.35,0,0,1-.18.49C29,69.31,29.09,69.16,29.32,69.06Z" transform="translate(-27.25 -48.01)"/><path class="cls-2" d="M29.71,68.18a.35.35,0,0,1-.25.55A.5.5,0,0,1,29.71,68.18Z" transform="translate(-27.25 -48.01)"/><path class="cls-2" d="M31,65.82c.12.28.06.48-.26.56A.64.64,0,0,1,31,65.82Z" transform="translate(-27.25 -48.01)"/><path class="cls-9" d="M213.8,76.61c-3.69,0-7.37,0-11.06,0-1,0-1.1-.27-.94-1.14.84-4.39,2.61-8.25,6.31-10.94A9.18,9.18,0,0,1,219,64.26c4.14,2.73,6,6.93,6.82,11.65.14.74-.28.71-.78.71Z" transform="translate(-27.25 -48.01)"/><path class="cls-9" d="M85.75,76.61c-3.72,0-7.45,0-11.17,0-.83,0-1-.19-.87-1A17.09,17.09,0,0,1,79.2,65.23,9.71,9.71,0,0,1,93,65.85,18.9,18.9,0,0,1,97.8,75.92c.16.8-.31.69-.77.69Z" transform="translate(-27.25 -48.01)"/><path class="cls-10" d="M169.34,115.9c-.32,0-.63,0-.53-.42a1.7,1.7,0,0,1,1.49-1.43c.47,0,.89.14.81.69C171,115.74,170.08,115.74,169.34,115.9Z" transform="translate(-27.25 -48.01)"/></svg>