<svg xmlns="http://www.w3.org/2000/svg" viewBox="0 0 647.53 172.16"><defs><style>.cls-1{fill:#199697;}</style></defs><title>Recurso 2</title><g id="Capa_2" data-name="Capa 2"><g id="Capa_1-2" data-name="Capa 1"><path class="cls-1" d="M0,172.16H38.59V45.84s2-7.25,8.24-7.25H98V172.16h38.26V38.59h52.11s8.25-2,9.9,11.54v122h35.95V30.67S231.53,0,204.48,0H29.68S5.94,2.31,0,26.38Z"/><path class="cls-1" d="M267.37,30S267.59.05,300.79.05H440V38.56H318.49s-8.8-.69-12.1,8.88l-.22,23.85H440v35.46H306.06v20.72s1.54,9.68,12.1,9.35,121.81,0,121.81,0v35.29H294.52s-26.6.44-26.6-29.91S267.37,30,267.37,30Z"/><path class="cls-1" d="M474.93,30S475.15.05,508.35.05H647.53V38.56H526.05s-8.8-.69-12.09,8.88l-.22,23.85H647.53v35.46H513.63v20.72s1.53,9.68,12.09,9.35,121.81,0,121.81,0v35.29H502.08s-26.6.44-26.6-29.91S474.93,30,474.93,30Z"/></g></g></svg>