<svg xmlns="http://www.w3.org/2000/svg" viewBox="0 0 651.4 223.72"><defs><style>.cls-1{fill:#199697;}.cls-2{fill:#ababab;}</style></defs><title>Recurso 4</title><g id="Capa_2" data-name="Capa 2"><g id="Capa_1-2" data-name="Capa 1"><path class="cls-1" d="M0,172.16H38.59V45.84s2-7.25,8.24-7.25H98V172.16h38.26V38.59h52.11s8.25-2,9.9,11.54v122h35.95V30.67S231.53,0,204.48,0H29.68S5.94,2.31,0,26.38Z"/><path class="cls-1" d="M267.37,30S267.59.05,300.79.05H440V38.56H318.49s-8.8-.69-12.1,8.88l-.22,23.85H440v35.46H306.06v20.72s1.54,9.68,12.1,9.35,121.81,0,121.81,0v35.29H294.52s-26.6.44-26.6-29.91S267.37,30,267.37,30Z"/><path class="cls-1" d="M474.93,30S475.15.05,508.35.05H647.53V38.56H526.05s-8.8-.69-12.09,8.88l-.22,23.85H647.53v35.46H513.63v20.72s1.53,9.68,12.09,9.35,121.81,0,121.81,0v35.29H502.08s-26.6.44-26.6-29.91S474.93,30,474.93,30Z"/><path fill="#ababab" d="M14.6,201.91H3.71V212H15.85v3H.1V187H15.22v3H3.71v8.85H14.6Z"/><path fill="#ababab" d="M21.42,200.37c0-2.08,0-3.78-.17-5.44h3.24l.21,3.32h.08a7.41,7.41,0,0,1,6.65-3.78c2.79,0,7.11,1.66,7.11,8.56v12H34.88v-11.6c0-3.24-1.2-5.94-4.65-5.94a5.22,5.22,0,0,0-4.91,3.74,5.44,5.44,0,0,0-.25,1.7V215H21.42Z"/><path fill="#ababab" d="M49.72,189.15v5.78H55v2.78H49.72v10.84c0,2.5.7,3.91,2.74,3.91a8.4,8.4,0,0,0,2.12-.25l.16,2.74a8.9,8.9,0,0,1-3.24.5,5,5,0,0,1-3.94-1.54c-1-1.08-1.42-2.86-1.42-5.23v-11H43v-2.78h3.11v-4.82Z"/><path fill="#ababab" d="M60.06,201.2c0-2.37,0-4.4-.16-6.27h3.2l.12,3.94h.17a6,6,0,0,1,5.57-4.4,4.18,4.18,0,0,1,1,.12V198a5.76,5.76,0,0,0-1.25-.12c-2.58,0-4.41,2-4.9,4.69a9.6,9.6,0,0,0-.17,1.71V215H60.06Z"/><path fill="#ababab" d="M76.27,205.64c.08,5,3.24,7,6.9,7a13.28,13.28,0,0,0,5.57-1l.62,2.61a16.15,16.15,0,0,1-6.69,1.25c-6.19,0-9.89-4.07-9.89-10.14s3.57-10.84,9.43-10.84c6.57,0,8.31,5.77,8.31,9.47a14.14,14.14,0,0,1-.12,1.7ZM87,203c0-2.33-.95-5.94-5.07-5.94-3.7,0-5.32,3.4-5.61,5.94Z"/><path fill="#ababab" d="M113.38,194.93c-.08,1.45-.17,3.07-.17,5.52v11.68c0,4.61-.91,7.43-2.86,9.18a10.67,10.67,0,0,1-7.32,2.41,13,13,0,0,1-6.69-1.66l.92-2.79a11.33,11.33,0,0,0,5.9,1.58c3.74,0,6.48-1.95,6.48-7v-2.24h-.08a7.19,7.19,0,0,1-6.4,3.36c-5,0-8.56-4.24-8.56-9.8,0-6.82,4.44-10.68,9.06-10.68a6.68,6.68,0,0,1,6.27,3.49H110l.17-3Zm-3.78,7.93a5.1,5.1,0,0,0-.21-1.66,5.27,5.27,0,0,0-5.11-3.86c-3.49,0-6,2.95-6,7.6,0,3.95,2,7.23,5.94,7.23a5.35,5.35,0,0,0,5.07-3.74,6.59,6.59,0,0,0,.29-2Z"/><path fill="#ababab" d="M131.41,215l-.29-2.54H131a7.48,7.48,0,0,1-6.15,3c-4.07,0-6.15-2.86-6.15-5.77,0-4.86,4.32-7.52,12.09-7.48v-.42c0-1.66-.46-4.65-4.57-4.65a10,10,0,0,0-5.24,1.5l-.83-2.41a12.53,12.53,0,0,1,6.61-1.79c6.15,0,7.65,4.2,7.65,8.23v7.52a28.37,28.37,0,0,0,.33,4.82Zm-.54-10.27c-4-.08-8.51.63-8.51,4.53a3.23,3.23,0,0,0,3.44,3.49,5,5,0,0,0,4.87-3.36,4,4,0,0,0,.2-1.17Z"/><path fill="#ababab" d="M141.31,200.37c0-2.08-.05-3.78-.17-5.44h3.2l.17,3.24h.12a6.93,6.93,0,0,1,6.32-3.7,5.94,5.94,0,0,1,5.69,4h.08a8.24,8.24,0,0,1,2.24-2.62,6.91,6.91,0,0,1,4.45-1.41c2.66,0,6.61,1.74,6.61,8.72V215h-3.58V203.65c0-3.86-1.41-6.19-4.36-6.19a4.73,4.73,0,0,0-4.32,3.32,6,6,0,0,0-.29,1.83V215H153.9V203c0-3.2-1.42-5.53-4.2-5.53a5.45,5.45,0,0,0-4.82,5.44V215h-3.57Z"/><path fill="#ababab" d="M195.16,204.81c0,7.44-5.15,10.68-10,10.68-5.45,0-9.64-4-9.64-10.34,0-6.73,4.4-10.68,10-10.68C191.25,194.47,195.16,198.67,195.16,204.81Zm-15.95.21c0,4.41,2.53,7.73,6.1,7.73s6.11-3.28,6.11-7.81c0-3.41-1.7-7.73-6-7.73S179.21,201.2,179.21,205Z"/><path fill="#ababab" d="M200.27,211.3a9.67,9.67,0,0,0,4.82,1.45c2.66,0,3.91-1.33,3.91-3s-1-2.7-3.74-3.7c-3.61-1.29-5.32-3.28-5.32-5.69,0-3.24,2.62-5.9,6.94-5.9a10,10,0,0,1,5,1.25l-.92,2.65a7.9,7.9,0,0,0-4.11-1.16c-2.16,0-3.37,1.25-3.37,2.74,0,1.66,1.21,2.41,3.82,3.41,3.49,1.33,5.28,3.07,5.28,6.07,0,3.53-2.74,6-7.52,6a11.47,11.47,0,0,1-5.65-1.37Z"/><path fill="#ababab" d="M247.73,214.12a17.87,17.87,0,0,1-7.4,1.33c-7.89,0-13.83-5-13.83-14.17,0-8.76,5.94-14.71,14.62-14.71a15,15,0,0,1,6.65,1.25l-.87,3a13.26,13.26,0,0,0-5.65-1.16c-6.57,0-10.93,4.19-10.93,11.55,0,6.85,4,11.26,10.76,11.26a14.4,14.4,0,0,0,5.9-1.17Z"/><path fill="#ababab" d="M270.87,204.81c0,7.44-5.15,10.68-10,10.68-5.44,0-9.64-4-9.64-10.34,0-6.73,4.41-10.68,10-10.68C267,194.47,270.87,198.67,270.87,204.81Zm-16,.21c0,4.41,2.53,7.73,6.11,7.73s6.1-3.28,6.1-7.81c0-3.41-1.7-7.73-6-7.73S254.92,201.2,254.92,205Z"/><path fill="#ababab" d="M276.49,200.37c0-2.08,0-3.78-.17-5.44h3.24l.21,3.32h.08a7.41,7.41,0,0,1,6.65-3.78c2.78,0,7.11,1.66,7.11,8.56v12H290v-11.6c0-3.24-1.21-5.94-4.65-5.94a5.22,5.22,0,0,0-4.91,3.74,5.44,5.44,0,0,0-.25,1.7V215h-3.65Z"/><path fill="#ababab" d="M304.79,189.15v5.78H310v2.78h-5.23v10.84c0,2.5.7,3.91,2.74,3.91a8.4,8.4,0,0,0,2.12-.25l.16,2.74a8.94,8.94,0,0,1-3.24.5,5,5,0,0,1-3.94-1.54c-1-1.08-1.42-2.86-1.42-5.23v-11H298.1v-2.78h3.11v-4.82Z"/><path fill="#ababab" d="M319.21,189.28a2.27,2.27,0,0,1-4.53,0A2.23,2.23,0,0,1,317,187,2.18,2.18,0,0,1,319.21,189.28ZM315.13,215V194.93h3.66V215Z"/><path fill="#ababab" d="M325.86,200.37c0-2.08-.05-3.78-.17-5.44h3.24l.21,3.32h.08a7.4,7.4,0,0,1,6.65-3.78c2.78,0,7.1,1.66,7.1,8.56v12h-3.65v-11.6c0-3.24-1.21-5.94-4.66-5.94a5.36,5.36,0,0,0-5.15,5.44V215h-3.65Z"/><path fill="#ababab" d="M366.74,209.55c0,2.08.05,3.91.17,5.49h-3.24l-.21-3.29h-.08a7.58,7.58,0,0,1-6.65,3.74c-3.16,0-6.94-1.74-6.94-8.81V194.93h3.66v11.13c0,3.82,1.16,6.4,4.48,6.4a5.16,5.16,0,0,0,5.16-5.19V194.93h3.65Z"/><path fill="#ababab" d="M377.88,189.28a2.16,2.16,0,0,1-2.32,2.24,2.18,2.18,0,0,1-2.21-2.24,2.23,2.23,0,0,1,2.29-2.29A2.17,2.17,0,0,1,377.88,189.28ZM373.81,215V194.93h3.66V215Z"/><path fill="#ababab" d="M401.9,185.54v24.3c0,1.79,0,3.82.17,5.2h-3.29l-.16-3.49h-.09a7.43,7.43,0,0,1-6.85,3.94c-4.86,0-8.6-4.11-8.6-10.22,0-6.69,4.11-10.8,9-10.8a6.72,6.72,0,0,1,6.07,3.07h.08v-12Zm-3.66,17.57a6.72,6.72,0,0,0-.16-1.54,5.38,5.38,0,0,0-5.28-4.23c-3.78,0-6,3.32-6,7.76,0,4.08,2,7.44,5.94,7.44a5.5,5.5,0,0,0,5.36-4.36,6.61,6.61,0,0,0,.16-1.58Z"/><path fill="#ababab" d="M420.1,215l-.29-2.54h-.12a7.51,7.51,0,0,1-6.15,3c-4.08,0-6.15-2.86-6.15-5.77,0-4.86,4.32-7.52,12.09-7.48v-.42c0-1.66-.46-4.65-4.57-4.65a10,10,0,0,0-5.24,1.5l-.83-2.41a12.48,12.48,0,0,1,6.61-1.79c6.15,0,7.64,4.2,7.64,8.23v7.52a28.3,28.3,0,0,0,.34,4.82Zm-.54-10.27c-4-.08-8.52.63-8.52,4.53a3.24,3.24,0,0,0,3.45,3.49,5,5,0,0,0,4.86-3.36,3.7,3.7,0,0,0,.21-1.17Z"/><path fill="#ababab" d="M447.36,185.54v24.3c0,1.79,0,3.82.17,5.2h-3.28l-.17-3.49H444a7.46,7.46,0,0,1-6.86,3.94c-4.86,0-8.6-4.11-8.6-10.22,0-6.69,4.11-10.8,9-10.8a6.71,6.71,0,0,1,6.06,3.07h.09v-12Zm-3.65,17.57a6.73,6.73,0,0,0-.17-1.54,5.38,5.38,0,0,0-5.28-4.23c-3.78,0-6,3.32-6,7.76,0,4.08,2,7.44,5.94,7.44a5.5,5.5,0,0,0,5.36-4.36,6.6,6.6,0,0,0,.17-1.58Z"/><path fill="#ababab" d="M478.86,201.91H468V212h12.13v3H464.36V187h15.13v3H468v8.85h10.88Z"/><path fill="#ababab" d="M485.68,200.37c0-2.08,0-3.78-.17-5.44h3.24l.21,3.32H489a7.41,7.41,0,0,1,6.65-3.78c2.79,0,7.11,1.66,7.11,8.56v12h-3.66v-11.6c0-3.24-1.2-5.94-4.65-5.94a5.22,5.22,0,0,0-4.91,3.74,5.44,5.44,0,0,0-.25,1.7V215h-3.65Z"/><path fill="#ababab" d="M511.78,205.64c.08,5,3.24,7,6.89,7a13.25,13.25,0,0,0,5.57-1l.62,2.61a16.11,16.11,0,0,1-6.69,1.25c-6.19,0-9.88-4.07-9.88-10.14s3.57-10.84,9.43-10.84c6.56,0,8.31,5.77,8.31,9.47a13.7,13.7,0,0,1-.13,1.7ZM522.5,203c0-2.33-1-5.94-5.07-5.94-3.7,0-5.32,3.4-5.61,5.94Z"/><path fill="#ababab" d="M531.56,201.2c0-2.37,0-4.4-.17-6.27h3.2l.12,3.94h.17a6,6,0,0,1,5.57-4.4,4.18,4.18,0,0,1,1,.12V198a5.76,5.76,0,0,0-1.25-.12c-2.58,0-4.41,2-4.9,4.69a9.6,9.6,0,0,0-.17,1.71V215h-3.61Z"/><path fill="#ababab" d="M563.14,194.93c-.09,1.45-.17,3.07-.17,5.52v11.68c0,4.61-.91,7.43-2.87,9.18a10.65,10.65,0,0,1-7.31,2.41,13,13,0,0,1-6.69-1.66l.91-2.79a11.36,11.36,0,0,0,5.9,1.58c3.74,0,6.49-1.95,6.49-7v-2.24h-.09a7.17,7.17,0,0,1-6.4,3.36c-5,0-8.55-4.24-8.55-9.8,0-6.82,4.44-10.68,9-10.68a6.71,6.71,0,0,1,6.28,3.49h.08l.17-3Zm-3.79,7.93a5.4,5.4,0,0,0-.2-1.66,5.27,5.27,0,0,0-5.11-3.86c-3.49,0-6,2.95-6,7.6,0,3.95,2,7.23,6,7.23a5.33,5.33,0,0,0,5.06-3.74,6.28,6.28,0,0,0,.29-2Z"/><path fill="#ababab" d="M572.07,205.64c.09,5,3.24,7,6.9,7a13.25,13.25,0,0,0,5.57-1l.62,2.61a16.15,16.15,0,0,1-6.69,1.25c-6.19,0-9.89-4.07-9.89-10.14s3.58-10.84,9.43-10.84c6.57,0,8.31,5.77,8.31,9.47a14.14,14.14,0,0,1-.12,1.7ZM582.79,203c0-2.33-.95-5.94-5.07-5.94-3.7,0-5.32,3.4-5.61,5.94Zm.87-16.79-5.06,5.94H576l3.65-5.94Z"/><path fill="#ababab" d="M596.26,189.15v5.78h5.23v2.78h-5.23v10.84c0,2.5.7,3.91,2.74,3.91a8.34,8.34,0,0,0,2.12-.25l.16,2.74a8.9,8.9,0,0,1-3.24.5,5,5,0,0,1-3.94-1.54c-1-1.08-1.42-2.86-1.42-5.23v-11h-3.11v-2.78h3.11v-4.82Z"/><path fill="#ababab" d="M610.68,189.28a2.27,2.27,0,0,1-4.53,0,2.23,2.23,0,0,1,2.28-2.29A2.18,2.18,0,0,1,610.68,189.28ZM606.61,215V194.93h3.65V215Z"/><path fill="#ababab" d="M631.66,214.29a13.41,13.41,0,0,1-5.77,1.16c-6.07,0-10-4.11-10-10.26s4.24-10.68,10.8-10.68a12.18,12.18,0,0,1,5.07,1l-.83,2.82a8.57,8.57,0,0,0-4.24-1c-4.61,0-7.1,3.41-7.1,7.6,0,4.66,3,7.52,7,7.52a10.51,10.51,0,0,0,4.49-1Z"/><path fill="#ababab" d="M648.08,215l-.29-2.54h-.13a7.48,7.48,0,0,1-6.15,3c-4.07,0-6.15-2.86-6.15-5.77,0-4.86,4.32-7.52,12.09-7.48v-.42c0-1.66-.45-4.65-4.57-4.65a9.94,9.94,0,0,0-5.23,1.5l-.83-2.41a12.47,12.47,0,0,1,6.6-1.79c6.15,0,7.65,4.2,7.65,8.23v7.52a28.37,28.37,0,0,0,.33,4.82Zm-.54-10.27c-4-.08-8.52.63-8.52,4.53a3.24,3.24,0,0,0,3.45,3.49,5,5,0,0,0,4.86-3.36,4,4,0,0,0,.21-1.17Z"/></g></g></svg>