<?xml version="1.0" encoding="utf-8"?>
<!-- Generator: Adobe Illustrator 15.1.0, SVG Export Plug-In  -->
<!DOCTYPE svg PUBLIC "-//W3C//DTD SVG 1.1//EN" "http://www.w3.org/Graphics/SVG/1.1/DTD/svg11.dtd" [
	<!ENTITY ns_flows "http://ns.adobe.com/Flows/1.0/">
]>
<svg version="1.1"
	 xmlns="http://www.w3.org/2000/svg" xmlns:xlink="http://www.w3.org/1999/xlink" xmlns:a="http://ns.adobe.com/AdobeSVGViewerExtensions/3.0/"
	 x="0px" y="0px" width="599px" height="208px" viewBox="0 0 599 208" enable-background="new 0 0 599 208" xml:space="preserve">
<defs>
</defs>
<path fill="#E5352C" d="M83.918,166.082c-31.597-25.324-28.281-82.381,6.619-129.749c15.689,4.039,33.721,11.479,54.248,23.348
	c-13.296-18.367-28.681-29.643-44.347-35.528C108.857,14.725,118.002,6.617,127.504,0c-12.183,4.11-24.126,11.531-34.867,21.655
	C49.175,10.202,5.824,37.974,0.738,69.517c-7.233,44.833,41.073,65.659,41.073,65.659S7.304,118.463,6.305,82.796
	C5.557,56.14,28.462,24.725,81.05,34.241c-7.696,9.598-14.406,20.757-19.632,33.196c-22.246,52.971-9.239,108.949,29.053,125.035
	c30.438,12.783,67.69-3.486,92.866-37.295C148.699,180.488,108.97,186.156,83.918,166.082z"/>
<polygon fill="#E5352C" points="103.408,120.787 103.408,96.192 87.013,96.192 87.013,85.944 130.054,85.944 126.12,96.192 
	113.657,96.192 113.657,120.787 "/>
<path fill="#E5352C" d="M133.417,96.192V85.944h45.091v10.248H133.417L133.417,96.192z M133.417,108.49L133.417,108.49V98.242
	h39.845l-3.935,10.248H133.417L133.417,108.49z M133.417,120.787L133.417,120.787v-10.248h45.091v10.248H133.417z"/>
<polygon fill="#E5352C" points="181.869,120.787 181.869,85.944 226.961,85.944 226.961,96.192 192.117,96.192 192.117,110.539 
	220.405,110.539 216.469,120.787 "/>
<polygon fill="#004D9B" points="219.948,120.645 223.882,110.693 273.637,110.693 273.637,106.373 230.44,106.373 230.44,86.087 
	282.275,86.087 282.275,94.727 239.082,94.727 239.082,99.046 282.275,99.046 282.275,120.645 "/>
<polygon fill="#004D9B" points="290.531,136.809 286.599,127.391 329.795,127.391 329.795,120.645 286.599,120.645 286.599,86.087 
	295.235,86.087 295.235,112.006 329.795,112.006 329.795,86.087 338.436,86.087 338.436,136.809 "/>
<polygon fill="#004D9B" points="342.755,120.645 342.755,112.006 385.952,112.006 385.952,107.686 342.755,107.686 342.755,86.087 
	394.593,86.087 394.593,94.727 351.393,94.727 351.393,99.046 394.593,99.046 394.593,120.645 "/>
<polygon fill="#004D9B" points="398.912,120.645 398.912,73.128 407.551,73.128 407.551,86.087 450.75,86.087 450.75,94.727 
	407.551,94.727 407.551,112.006 450.75,112.006 450.75,120.645 "/>
<path fill="#004D9B" d="M455.069,120.645V86.087h51.839v21.599h-43.2v4.32h43.2v8.639H455.069L455.069,120.645z M498.27,99.046
	L498.27,99.046v-4.32h-34.562v4.32H498.27z"/>
<polygon fill="#004D9B" points="511.227,120.645 511.227,86.087 563.065,86.087 563.065,120.645 554.427,120.645 554.427,94.727 
	541.467,94.727 541.467,103.366 532.828,103.366 532.828,94.727 519.868,94.727 519.868,120.645 "/>
<rect x="532.828" y="106.232" fill="#E5352C" width="8.63" height="6.828"/>
<radialGradient id="SVGID_1_" cx="292.3643" cy="159.916" r="31.0635" gradientTransform="matrix(1 0 0 -1 -0.02 207.0947)" gradientUnits="userSpaceOnUse">
	<stop  offset="0" style="stop-color:#B0DFF4"/>
	<stop  offset="0.29" style="stop-color:#3EB2E2"/>
	<stop  offset="0.99" style="stop-color:#004D9B"/>
	<stop  offset="1" style="stop-color:#004D9B"/>
</radialGradient>
<path fill="url(#SVGID_1_)" d="M269.091,11.044c1.771-1.077,4.081-0.615,5.161,1.156c1.079,1.695,0.617,4.007-1.08,5.086
	c-1.771,1.154-4.081,0.615-5.16-1.079C266.932,14.435,267.397,12.2,269.091,11.044L269.091,11.044z M274.407,19.288L274.407,19.288
	c-1.696,1.157-2.234,3.467-1.079,5.161c1.079,1.695,3.39,2.233,5.085,1.079c1.772-1.079,2.231-3.39,1.155-5.083
	C278.488,18.671,276.176,18.21,274.407,19.288L274.407,19.288z M279.724,27.531L279.724,27.531c1.693-1.078,4.006-0.539,5.158,1.156
	c1.082,1.695,0.62,4.006-1.152,5.085c-1.696,1.155-4.006,0.616-5.085-1.079C277.489,30.999,278.027,28.687,279.724,27.531
	L279.724,27.531z M285.035,35.774L285.035,35.774c-1.691,1.156-2.233,3.467-1.15,5.163c1.15,1.695,3.465,2.234,5.158,1.156
	c1.696-1.156,2.234-3.468,1.155-5.162C289.043,35.234,286.733,34.697,285.035,35.774L285.035,35.774z M290.352,44.095
	L290.352,44.095c1.698-1.154,4.007-0.616,5.086,1.079c1.154,1.694,0.617,4.006-1.079,5.161c-1.696,1.08-4.007,0.617-5.161-1.155
	C288.119,47.485,288.583,45.174,290.352,44.095L290.352,44.095z M295.668,52.339L295.668,52.339
	c-1.769,1.078-2.234,3.389-1.154,5.084c1.078,1.773,3.389,2.234,5.161,1.156c1.692-1.156,2.233-3.468,1.079-5.162
	C299.675,51.724,297.364,51.183,295.668,52.339L295.668,52.339z M300.908,60.581L300.908,60.581c1.77-1.154,4.08-0.616,5.159,1.079
	c1.079,1.772,0.616,4.005-1.079,5.162c-1.77,1.079-4.08,0.616-5.158-1.157C298.75,63.972,299.213,61.66,300.908,60.581
	L300.908,60.581z M306.225,68.824L306.225,68.824c-1.695,1.079-2.234,3.392-1.078,5.086c1.078,1.771,3.389,2.233,5.082,1.155
	c1.771-1.078,2.236-3.39,1.158-5.162C310.229,68.208,307.997,67.669,306.225,68.824L306.225,68.824z M311.538,77.069L311.538,77.069
	c1.696-1.08,4.007-0.617,5.161,1.078c1.079,1.771,0.541,4.083-1.154,5.163c-1.693,1.078-4.007,0.615-5.083-1.079
	C309.307,80.459,309.846,78.147,311.538,77.069z"/>
<radialGradient id="SVGID_2_" cx="299.4448" cy="166.3516" r="29.5291" gradientTransform="matrix(1 0 0 -1 -0.02 207.0947)" gradientUnits="userSpaceOnUse">
	<stop  offset="0" style="stop-color:#B0DFF4"/>
	<stop  offset="0.29" style="stop-color:#3EB2E2"/>
	<stop  offset="0.99" style="stop-color:#004D9B"/>
	<stop  offset="1" style="stop-color:#004D9B"/>
</radialGradient>
<path fill="url(#SVGID_2_)" d="M277.334,6.345c1.617-1.001,3.775-0.54,4.854,1.08c1.001,1.616,0.539,3.774-1.078,4.775
	c-1.618,1.002-3.775,0.539-4.776-1.001C275.255,9.58,275.792,7.425,277.334,6.345L277.334,6.345z M282.419,14.281L282.419,14.281
	c-1.616,1.001-2.079,3.16-1.078,4.776c1.078,1.54,3.233,2.08,4.851,1.001c1.544-1.001,2.007-3.157,1.003-4.776
	C286.191,13.663,284.036,13.202,282.419,14.281L282.419,14.281z M287.425,22.138L287.425,22.138
	c1.618-1.079,3.776-0.618,4.854,1.001c1,1.619,0.541,3.775-1.078,4.776c-1.62,1.078-3.776,0.616-4.775-1.001
	C285.423,25.298,285.885,23.14,287.425,22.138L287.425,22.138z M292.51,29.997L292.51,29.997c-1.616,1.002-2.077,3.158-1,4.775
	c1,1.619,3.156,2.08,4.775,1.002c1.541-1.002,2.082-3.158,1.004-4.775C296.285,29.38,294.127,28.918,292.51,29.997L292.51,29.997z
	 M297.596,37.856L297.596,37.856c1.538-1.08,3.696-0.618,4.775,1c1.003,1.618,0.541,3.775-1.079,4.777
	c-1.617,1.077-3.772,0.616-4.775-1.001C295.514,41.013,295.979,38.856,297.596,37.856L297.596,37.856z M302.602,45.714
	L302.602,45.714c-1.617,1-2.079,3.157-1.003,4.775c1.003,1.618,3.161,2.081,4.778,1.001c1.62-1.001,2.082-3.159,1.003-4.776
	C306.377,45.097,304.222,44.635,302.602,45.714L302.602,45.714z M307.688,53.571L307.688,53.571c1.619-1.078,3.699-0.539,4.777,1
	c1.001,1.619,0.539,3.776-1.078,4.855c-1.62,1.001-3.699,0.538-4.778-1.079C305.608,56.729,306.067,54.571,307.688,53.571
	L307.688,53.571z M312.696,61.429L312.696,61.429c-1.62,1.001-2.082,3.16-1.003,4.777c1.003,1.617,3.161,2.08,4.775,1.079
	c1.617-1.079,2.082-3.235,1.003-4.854C316.469,60.89,314.313,60.428,312.696,61.429L312.696,61.429z M317.778,69.286L317.778,69.286
	c1.62-1,3.778-0.539,4.775,1.08c1.003,1.54,0.541,3.697-1.079,4.776c-1.535,1.001-3.696,0.539-4.775-1.079
	C315.699,72.446,316.161,70.289,317.778,69.286z"/>
<radialGradient id="SVGID_3_" cx="307.4951" cy="170.7803" r="28.0032" gradientTransform="matrix(1 0 0 -1 -0.02 207.0947)" gradientUnits="userSpaceOnUse">
	<stop  offset="0" style="stop-color:#B0DFF4"/>
	<stop  offset="0.29" style="stop-color:#3EB2E2"/>
	<stop  offset="0.99" style="stop-color:#004D9B"/>
	<stop  offset="1" style="stop-color:#004D9B"/>
</radialGradient>
<path fill="url(#SVGID_3_)" d="M286.578,3.727c1.465-1.001,3.468-0.54,4.392,0.924c1.003,1.54,0.54,3.468-0.924,4.468
	c-1.544,0.925-3.545,0.539-4.469-1C284.653,6.653,285.035,4.65,286.578,3.727L286.578,3.727z M291.356,11.199L291.356,11.199
	c1.464-1.001,3.464-0.54,4.388,0.925c1.004,1.539,0.541,3.543-0.924,4.467c-1.462,0.923-3.464,0.538-4.469-1.003
	C289.432,14.126,289.892,12.125,291.356,11.199L291.356,11.199z M296.133,18.671L296.133,18.671
	c1.463-1.001,3.466-0.539,4.469,0.924c0.922,1.541,0.538,3.544-1.003,4.47c-1.465,0.924-3.466,0.539-4.392-1.003
	C294.206,21.599,294.666,19.596,296.133,18.671L296.133,18.671z M300.908,26.145L300.908,26.145
	c1.539-1.001,3.542-0.539,4.469,0.925c0.924,1.539,0.541,3.544-0.927,4.469c-1.538,0.924-3.542,0.539-4.469-0.924
	C298.981,29.071,299.443,27.069,300.908,26.145L300.908,26.145z M305.76,33.617L305.76,33.617c1.465-0.925,3.469-0.538,4.393,0.925
	c1,1.542,0.541,3.544-0.924,4.469c-1.541,1.002-3.469,0.54-4.469-0.925C303.836,36.544,304.222,34.542,305.76,33.617L305.76,33.617z
	 M310.535,41.091L310.535,41.091c1.465-0.926,3.472-0.54,4.472,1.002c0.924,1.463,0.462,3.466-1,4.391
	c-1.466,1.002-3.472,0.539-4.469-0.925C308.611,44.018,309.073,42.015,310.535,41.091L310.535,41.091z M315.313,48.563
	L315.313,48.563c1.541-0.924,3.468-0.539,4.469,1.002c0.927,1.464,0.541,3.467-1.001,4.39c-1.465,1.001-3.468,0.539-4.392-0.923
	C313.387,51.49,313.852,49.487,315.313,48.563L315.313,48.563z M320.168,56.037L320.168,56.037c1.465-0.925,3.465-0.54,4.389,1.002
	c1.004,1.462,0.541,3.467-0.924,4.391c-1.538,1.001-3.544,0.539-4.468-0.924C318.244,58.964,318.627,57.039,320.168,56.037
	L320.168,56.037z M324.946,63.509L324.946,63.509c1.462-0.924,3.465-0.54,4.389,1.001c1.003,1.465,0.538,3.467-0.924,4.391
	c-1.465,1.001-3.465,0.541-4.468-0.924C323.019,66.437,323.402,64.511,324.946,63.509z"/>
<radialGradient id="SVGID_4_" cx="315.9727" cy="173.1602" r="26.4769" gradientTransform="matrix(1 0 0 -1 -0.02 207.0947)" gradientUnits="userSpaceOnUse">
	<stop  offset="0" style="stop-color:#B0DFF4"/>
	<stop  offset="0.29" style="stop-color:#3EB2E2"/>
	<stop  offset="0.99" style="stop-color:#004D9B"/>
	<stop  offset="1" style="stop-color:#004D9B"/>
</radialGradient>
<path fill="url(#SVGID_4_)" d="M296.209,3.109c1.311-0.924,3.158-0.539,4.082,0.85c0.849,1.385,0.463,3.234-0.924,4.082
	c-1.389,0.924-3.234,0.539-4.082-0.848C294.358,5.806,294.82,3.958,296.209,3.109L296.209,3.109z M300.754,10.198L300.754,10.198
	c1.311-0.926,3.158-0.541,4.085,0.846c0.845,1.387,0.459,3.237-0.927,4.084c-1.387,0.923-3.234,0.539-4.082-0.848
	C298.906,12.894,299.367,11.044,300.754,10.198L300.754,10.198z M305.298,17.286L305.298,17.286
	c1.311-0.926,3.161-0.539,4.085,0.847c0.846,1.386,0.463,3.235-0.924,4.082c-1.389,0.925-3.237,0.54-4.085-0.847
	C303.449,19.981,303.912,18.133,305.298,17.286L305.298,17.286z M309.846,24.373L309.846,24.373
	c1.307-0.925,3.158-0.463,4.079,0.847c0.851,1.387,0.465,3.236-0.921,4.161c-1.387,0.847-3.237,0.463-4.086-0.924
	C307.997,27.069,308.459,25.22,309.846,24.373L309.846,24.373z M314.39,31.461L314.39,31.461c1.31-0.926,3.158-0.462,4.085,0.847
	c0.848,1.387,0.459,3.236-0.927,4.16c-1.387,0.848-3.234,0.463-4.082-0.924C312.62,34.156,313.004,32.308,314.39,31.461
	L314.39,31.461z M318.934,38.548L318.934,38.548c1.311-0.924,3.161-0.462,4.085,0.848c0.849,1.387,0.463,3.236-0.924,4.161
	c-1.386,0.847-3.237,0.461-4.085-0.924C317.165,41.245,317.548,39.396,318.934,38.548L318.934,38.548z M323.481,45.636
	L323.481,45.636c1.307-0.926,3.158-0.462,4.082,0.848c0.848,1.387,0.462,3.236-0.924,4.16c-1.387,0.847-3.237,0.461-4.086-0.924
	C321.709,48.331,322.095,46.483,323.481,45.636L323.481,45.636z M328.025,52.724L328.025,52.724c1.31-0.925,3.158-0.462,4.082,0.924
	c0.848,1.31,0.465,3.159-0.924,4.084c-1.387,0.848-3.234,0.461-4.082-0.925C326.253,55.419,326.64,53.571,328.025,52.724
	L328.025,52.724z M332.572,59.812L332.572,59.812c1.311-0.848,3.158-0.462,4.082,0.924c0.849,1.31,0.463,3.16-0.924,4.083
	c-1.389,0.847-3.237,0.463-4.082-0.923C330.801,62.509,331.184,60.659,332.572,59.812z"/>
<radialGradient id="SVGID_5_" cx="324.4355" cy="173.5176" r="24.9232" gradientTransform="matrix(1 0 0 -1 -0.02 207.0947)" gradientUnits="userSpaceOnUse">
	<stop  offset="0" style="stop-color:#B0DFF4"/>
	<stop  offset="0.29" style="stop-color:#3EB2E2"/>
	<stop  offset="0.99" style="stop-color:#004D9B"/>
	<stop  offset="1" style="stop-color:#004D9B"/>
</radialGradient>
<path fill="url(#SVGID_5_)" d="M305.76,4.496c1.234-0.849,2.931-0.461,3.778,0.771c0.77,1.232,0.459,2.927-0.848,3.774
	c-1.234,0.771-2.931,0.462-3.702-0.848C304.143,6.96,304.529,5.267,305.76,4.496L305.76,4.496z M310.076,11.199L310.076,11.199
	c1.231-0.849,2.928-0.461,3.775,0.771c0.769,1.232,0.383,2.927-0.848,3.774c-1.231,0.771-2.928,0.463-3.775-0.848
	C308.459,13.663,308.842,11.97,310.076,11.199L310.076,11.199z M314.39,17.901L314.39,17.901c1.231-0.848,2.927-0.46,3.696,0.77
	c0.848,1.31,0.465,2.927-0.77,3.775c-1.307,0.771-2.927,0.463-3.775-0.848C312.772,20.366,313.079,18.671,314.39,17.901
	L314.39,17.901z M318.627,24.604L318.627,24.604c1.313-0.849,3.006-0.463,3.778,0.77c0.845,1.308,0.459,2.927-0.849,3.775
	c-1.233,0.771-2.93,0.462-3.702-0.848C317.01,27.069,317.396,25.375,318.627,24.604L318.627,24.604z M322.943,31.307L322.943,31.307
	c1.23-0.849,2.924-0.463,3.771,0.77c0.772,1.309,0.465,2.926-0.848,3.775c-1.231,0.771-2.924,0.463-3.696-0.849
	C321.323,33.771,321.709,32.077,322.943,31.307L322.943,31.307z M327.256,38.009L327.256,38.009
	c1.231-0.847,2.928-0.461,3.775,0.771c0.77,1.31,0.386,2.926-0.848,3.774c-1.231,0.771-2.928,0.461-3.775-0.848
	C325.636,40.474,326.025,38.78,327.256,38.009L327.256,38.009z M331.569,44.71L331.569,44.71c1.234-0.847,2.928-0.461,3.699,0.771
	c0.849,1.311,0.462,2.927-0.771,3.775c-1.311,0.77-3.007,0.463-3.775-0.849C329.952,47.177,330.263,45.481,331.569,44.71
	L331.569,44.71z M335.81,51.415L335.81,51.415c1.308-0.849,3-0.463,3.772,0.769c0.848,1.311,0.462,3.005-0.848,3.776
	c-1.231,0.769-2.925,0.461-3.696-0.849C334.189,53.879,334.572,52.184,335.81,51.415L335.81,51.415z M340.12,58.116L340.12,58.116
	c1.234-0.848,2.927-0.463,3.775,0.772c0.771,1.308,0.389,3.004-0.849,3.773c-1.23,0.848-2.927,0.463-3.771-0.848
	C338.503,60.581,338.889,58.888,340.12,58.116z"/>
<radialGradient id="SVGID_6_" cx="332.543" cy="172.6113" r="23.3931" gradientTransform="matrix(1 0 0 -1 -0.02 207.0947)" gradientUnits="userSpaceOnUse">
	<stop  offset="0" style="stop-color:#B0DFF4"/>
	<stop  offset="0.29" style="stop-color:#3EB2E2"/>
	<stop  offset="0.99" style="stop-color:#004D9B"/>
	<stop  offset="1" style="stop-color:#004D9B"/>
</radialGradient>
<path fill="url(#SVGID_6_)" d="M315.007,7.114c1.154-0.692,2.696-0.383,3.389,0.771c0.77,1.155,0.462,2.697-0.692,3.391
	c-1.155,0.771-2.696,0.385-3.39-0.693C313.541,9.427,313.852,7.886,315.007,7.114L315.007,7.114z M319.089,13.433L319.089,13.433
	c1.155-0.693,2.62-0.385,3.389,0.77c0.693,1.156,0.387,2.699-0.769,3.391c-1.155,0.771-2.62,0.386-3.39-0.692
	C317.627,15.744,317.934,14.202,319.089,13.433L319.089,13.433z M323.095,19.75L323.095,19.75c1.155-0.693,2.699-0.386,3.39,0.771
	c0.771,1.156,0.462,2.697-0.69,3.389c-1.158,0.771-2.699,0.385-3.389-0.692C321.633,22.06,321.939,20.521,323.095,19.75
	L323.095,19.75z M327.18,26.067L327.18,26.067c1.155-0.693,2.617-0.385,3.39,0.77c0.693,1.157,0.383,2.697-0.772,3.391
	c-1.154,0.771-2.617,0.386-3.389-0.693C325.715,28.378,326.025,26.837,327.18,26.067L327.18,26.067z M331.184,32.386L331.184,32.386
	c1.158-0.693,2.699-0.387,3.389,0.77c0.772,1.155,0.466,2.696-0.689,3.389c-1.155,0.771-2.699,0.387-3.39-0.692
	C329.722,34.697,330.028,33.155,331.184,32.386L331.184,32.386z M335.269,38.702L335.269,38.702c1.079-0.693,2.617-0.385,3.39,0.771
	c0.692,1.155,0.383,2.696-0.772,3.39c-1.155,0.771-2.696,0.385-3.389-0.693C333.728,41.013,334.113,39.473,335.269,38.702
	L335.269,38.702z M339.275,45.021L339.275,45.021c1.154-0.694,2.695-0.386,3.389,0.77c0.77,1.155,0.383,2.695-0.693,3.39
	c-1.157,0.77-2.695,0.386-3.468-0.694C337.81,47.331,338.12,45.79,339.275,45.021L339.275,45.021z M343.357,51.337L343.357,51.337
	c1.076-0.693,2.62-0.385,3.392,0.771c0.69,1.155,0.384,2.696-0.771,3.39c-1.155,0.77-2.699,0.385-3.39-0.693
	C341.816,53.647,342.199,52.107,343.357,51.337L343.357,51.337z M347.363,57.653L347.363,57.653c1.155-0.693,2.696-0.385,3.39,0.771
	c0.771,1.157,0.386,2.696-0.693,3.39c-1.158,0.771-2.696,0.386-3.468-0.693C345.901,59.965,346.208,58.424,347.363,57.653z"/>
<radialGradient id="SVGID_7_" cx="340.0938" cy="170.3936" r="21.8658" gradientTransform="matrix(1 0 0 -1 -0.02 207.0947)" gradientUnits="userSpaceOnUse">
	<stop  offset="0" style="stop-color:#B0DFF4"/>
	<stop  offset="0.29" style="stop-color:#3EB2E2"/>
	<stop  offset="0.99" style="stop-color:#004D9B"/>
	<stop  offset="1" style="stop-color:#004D9B"/>
</radialGradient>
<path fill="url(#SVGID_7_)" d="M323.712,11.122c1-0.693,2.39-0.384,3.082,0.694c0.617,1.001,0.308,2.387-0.692,3.004
	c-1.004,0.693-2.39,0.386-3.083-0.617C322.405,13.124,322.712,11.737,323.712,11.122L323.712,11.122z M327.487,17.054
	L327.487,17.054c1.079-0.693,2.386-0.385,3.082,0.694c0.693,1.001,0.383,2.388-0.696,3.004c-1,0.693-2.386,0.385-3.003-0.616
	C326.177,19.057,326.484,17.67,327.487,17.054L327.487,17.054z M331.263,22.985L331.263,22.985c1.079-0.693,2.465-0.386,3.079,0.693
	c0.696,1.002,0.389,2.389-0.69,3.004c-1.003,0.693-2.389,0.387-3.006-0.615C329.952,24.989,330.263,23.603,331.263,22.985
	L331.263,22.985z M335.113,28.918L335.113,28.918c1.004-0.694,2.39-0.386,3.007,0.693c0.689,1.002,0.383,2.388-0.617,3.005
	c-1.076,0.693-2.39,0.385-3.082-0.618C333.728,30.921,334.035,29.534,335.113,28.918L335.113,28.918z M338.889,34.851
	L338.889,34.851c1-0.694,2.387-0.386,3.082,0.693c0.617,1,0.308,2.39-0.695,3.004c-0.997,0.693-2.387,0.386-3.079-0.615
	C337.579,36.853,337.886,35.466,338.889,34.851L338.889,34.851z M342.664,40.782L342.664,40.782
	c1.003-0.693,2.389-0.385,3.079,0.694c0.617,1,0.311,2.387-0.69,3.005c-1.003,0.692-2.389,0.385-3.082-0.618
	C341.354,42.787,341.661,41.397,342.664,40.782L342.664,40.782z M346.439,46.714L346.439,46.714
	c1.076-0.692,2.389-0.384,3.082,0.694c0.69,1,0.383,2.387-0.693,3.004c-1.003,0.692-2.389,0.386-3.009-0.617
	C345.129,48.718,345.439,47.331,346.439,46.714L346.439,46.714z M350.212,52.647L350.212,52.647
	c1.082-0.694,2.468-0.386,3.085,0.692c0.693,1.001,0.383,2.388-0.693,3.004c-1.003,0.695-2.392,0.385-3.006-0.616
	C348.901,54.65,349.212,53.263,350.212,52.647L350.212,52.647z M354.065,58.579L354.065,58.579c1-0.693,2.387-0.386,3.007,0.693
	c0.689,1.001,0.383,2.388-0.62,3.004c-1.076,0.693-2.387,0.385-3.079-0.616C352.68,60.581,352.986,59.196,354.065,58.579z"/>
<radialGradient id="SVGID_8_" cx="347.1133" cy="167.4873" r="20.3249" gradientTransform="matrix(1 0 0 -1 -0.02 207.0947)" gradientUnits="userSpaceOnUse">
	<stop  offset="0" style="stop-color:#B0DFF4"/>
	<stop  offset="0.29" style="stop-color:#3EB2E2"/>
	<stop  offset="0.99" style="stop-color:#004D9B"/>
	<stop  offset="1" style="stop-color:#004D9B"/>
</radialGradient>
<path fill="url(#SVGID_8_)" d="M331.88,15.744c0.924-0.539,2.155-0.308,2.692,0.616c0.617,0.926,0.308,2.156-0.537,2.696
	c-0.925,0.616-2.155,0.386-2.772-0.54C330.722,17.593,330.952,16.36,331.88,15.744L331.88,15.744z M335.421,21.292L335.421,21.292
	c0.927-0.541,2.158-0.31,2.699,0.616c0.614,0.923,0.307,2.158-0.617,2.697c-0.849,0.615-2.082,0.308-2.696-0.539
	C334.266,23.14,334.497,21.908,335.421,21.292L335.421,21.292z M338.965,26.837L338.965,26.837c0.924-0.538,2.158-0.307,2.696,0.617
	c0.617,0.924,0.31,2.157-0.617,2.697c-0.845,0.616-2.079,0.307-2.693-0.54C337.81,28.687,338.044,27.454,338.965,26.837
	L338.965,26.837z M342.509,32.386L342.509,32.386c0.925-0.539,2.079-0.309,2.696,0.616c0.614,0.923,0.308,2.158-0.617,2.696
	c-0.845,0.616-2.079,0.308-2.695-0.539C341.354,34.234,341.585,33.002,342.509,32.386L342.509,32.386z M346.054,37.933
	L346.054,37.933c0.924-0.54,2.082-0.309,2.698,0.615c0.614,0.925,0.305,2.157-0.616,2.697c-0.928,0.615-2.082,0.307-2.696-0.54
	C344.898,39.781,345.129,38.548,346.054,37.933L346.054,37.933z M349.598,43.479L349.598,43.479
	c0.924-0.538,2.079-0.308,2.696,0.616c0.538,0.926,0.31,2.159-0.617,2.698c-0.924,0.616-2.079,0.308-2.696-0.539
	C348.363,45.327,348.674,44.095,349.598,43.479L349.598,43.479z M353.142,49.026L353.142,49.026
	c0.849-0.541,2.079-0.309,2.693,0.614c0.541,0.926,0.31,2.158-0.614,2.698c-0.924,0.615-2.079,0.309-2.696-0.54
	C351.908,50.875,352.218,49.641,353.142,49.026L353.142,49.026z M356.686,54.571L356.686,54.571
	c0.846-0.537,2.079-0.307,2.696,0.618c0.538,0.925,0.308,2.158-0.617,2.697c-0.924,0.615-2.155,0.307-2.695-0.539
	C355.452,56.421,355.762,55.189,356.686,54.571L356.686,54.571z M360.228,60.12L360.228,60.12c0.848-0.539,2.079-0.309,2.698,0.615
	c0.539,0.925,0.308,2.158-0.619,2.697c-0.922,0.617-2.152,0.308-2.693-0.539C358.996,61.968,359.306,60.735,360.228,60.12z"/>
<radialGradient id="SVGID_9_" cx="354.2783" cy="165.9277" r="18.7775" gradientTransform="matrix(1 0 0 -1 -0.02 207.0947)" gradientUnits="userSpaceOnUse">
	<stop  offset="0" style="stop-color:#B0DFF4"/>
	<stop  offset="0.29" style="stop-color:#3EB2E2"/>
	<stop  offset="0.99" style="stop-color:#004D9B"/>
	<stop  offset="1" style="stop-color:#004D9B"/>
</radialGradient>
<path fill="url(#SVGID_9_)" d="M340.199,19.057c0.769-0.462,1.848-0.231,2.389,0.539c0.459,0.771,0.231,1.849-0.541,2.39
	c-0.771,0.461-1.848,0.229-2.389-0.541C339.199,20.674,339.43,19.596,340.199,19.057L340.199,19.057z M343.509,24.219
	L343.509,24.219c0.775-0.463,1.852-0.231,2.311,0.54c0.541,0.77,0.31,1.848-0.538,2.387c-0.769,0.463-1.848,0.23-2.311-0.539
	C342.43,25.837,342.664,24.759,343.509,24.219L343.509,24.219z M346.749,29.38L346.749,29.38c0.767-0.462,1.846-0.231,2.387,0.54
	c0.462,0.769,0.23,1.85-0.541,2.387c-0.77,0.462-1.846,0.232-2.387-0.538C345.743,30.999,345.978,29.92,346.749,29.38L346.749,29.38
	z M350.06,34.542L350.06,34.542c0.769-0.463,1.849-0.231,2.386,0.539c0.466,0.771,0.234,1.85-0.537,2.389
	c-0.849,0.463-1.849,0.231-2.387-0.54C348.98,36.16,349.29,35.081,350.06,34.542L350.06,34.542z M353.297,39.704L353.297,39.704
	c0.845-0.463,1.924-0.231,2.389,0.539c0.538,0.77,0.308,1.85-0.541,2.389c-0.771,0.461-1.848,0.23-2.313-0.539
	C352.294,41.321,352.524,40.243,353.297,39.704L353.297,39.704z M356.609,44.866L356.609,44.866c0.77-0.463,1.849-0.231,2.387,0.54
	c0.462,0.769,0.231,1.848-0.538,2.387c-0.772,0.462-1.849,0.231-2.389-0.539C355.606,46.483,355.835,45.406,356.609,44.866
	L356.609,44.866z M359.92,50.026L359.92,50.026c0.772-0.46,1.849-0.231,2.387,0.54c0.465,0.771,0.233,1.85-0.538,2.388
	c-0.849,0.463-1.849,0.231-2.387-0.538C358.841,51.645,359.075,50.566,359.92,50.026L359.92,50.026z M363.157,55.189L363.157,55.189
	c0.845-0.461,1.924-0.232,2.387,0.539c0.54,0.772,0.31,1.85-0.538,2.389c-0.772,0.463-1.849,0.231-2.311-0.539
	C362.154,56.807,362.389,55.728,363.157,55.189L363.157,55.189z M366.468,60.351L366.468,60.351c0.771-0.463,1.851-0.23,2.389,0.539
	c0.462,0.771,0.234,1.848-0.538,2.388c-0.769,0.463-1.851,0.232-2.389-0.54C365.468,61.968,365.698,60.89,366.468,60.351z"/>
<radialGradient id="SVGID_10_" cx="361.3486" cy="166.2617" r="17.2627" gradientTransform="matrix(1 0 0 -1 -0.02 207.0947)" gradientUnits="userSpaceOnUse">
	<stop  offset="0" style="stop-color:#B0DFF4"/>
	<stop  offset="0.29" style="stop-color:#3EB2E2"/>
	<stop  offset="0.99" style="stop-color:#004D9B"/>
	<stop  offset="1" style="stop-color:#004D9B"/>
</radialGradient>
<path fill="url(#SVGID_10_)" d="M348.442,20.521c0.614-0.463,1.541-0.231,2.003,0.461c0.383,0.616,0.231,1.542-0.462,2.003
	c-0.693,0.385-1.62,0.232-2.006-0.461C347.516,21.831,347.749,20.905,348.442,20.521L348.442,20.521z M351.445,25.298
	L351.445,25.298c0.693-0.463,1.541-0.231,2.004,0.461c0.462,0.617,0.23,1.541-0.463,2.004c-0.616,0.385-1.541,0.231-2.003-0.463
	C350.521,26.606,350.753,25.683,351.445,25.298L351.445,25.298z M354.449,30.075L354.449,30.075c0.695-0.464,1.62-0.232,2.082,0.46
	c0.386,0.619,0.23,1.542-0.462,2.004c-0.693,0.385-1.62,0.23-2.004-0.463C353.601,31.384,353.759,30.458,354.449,30.075
	L354.449,30.075z M357.531,34.851L357.531,34.851c0.617-0.463,1.544-0.232,2.003,0.384c0.462,0.694,0.231,1.618-0.459,2.081
	c-0.696,0.386-1.544,0.232-2.003-0.463C356.609,36.16,356.838,35.234,357.531,34.851L357.531,34.851z M360.537,39.627
	L360.537,39.627c0.693-0.462,1.617-0.231,2.003,0.386c0.462,0.692,0.231,1.616-0.386,2.08c-0.693,0.384-1.617,0.229-2.079-0.464
	C359.689,40.937,359.844,40.013,360.537,39.627L360.537,39.627z M363.543,44.403L363.543,44.403c0.69-0.462,1.617-0.23,2.079,0.386
	c0.387,0.692,0.231,1.618-0.462,2.079c-0.692,0.386-1.617,0.232-2.003-0.461C362.695,45.714,362.926,44.789,363.543,44.403
	L363.543,44.403z M366.623,49.18L366.623,49.18c0.692-0.462,1.541-0.231,2.006,0.386c0.462,0.693,0.228,1.617-0.465,2.079
	c-0.693,0.386-1.541,0.231-2.004-0.461C365.698,50.489,365.93,49.566,366.623,49.18L366.623,49.18z M369.629,53.956L369.629,53.956
	c0.692-0.462,1.614-0.309,2.003,0.385c0.462,0.693,0.307,1.619-0.389,2.08c-0.69,0.386-1.614,0.231-2.076-0.461
	C368.78,55.266,368.933,54.341,369.629,53.956L369.629,53.956z M372.711,58.656L372.711,58.656c0.614-0.386,1.538-0.232,2.003,0.46
	c0.383,0.695,0.231,1.619-0.465,2.003c-0.69,0.463-1.617,0.309-2-0.385C371.784,60.042,372.015,59.117,372.711,58.656z"/>
<radialGradient id="SVGID_11_" cx="367.8398" cy="168.4785" r="15.7272" gradientTransform="matrix(1 0 0 -1 -0.02 207.0947)" gradientUnits="userSpaceOnUse">
	<stop  offset="0" style="stop-color:#B0DFF4"/>
	<stop  offset="0.29" style="stop-color:#3EB2E2"/>
	<stop  offset="0.99" style="stop-color:#004D9B"/>
	<stop  offset="1" style="stop-color:#004D9B"/>
</radialGradient>
<path fill="url(#SVGID_11_)" d="M356.069,20.058c0.54-0.385,1.31-0.231,1.616,0.387c0.387,0.538,0.234,1.308-0.307,1.615
	c-0.617,0.387-1.31,0.232-1.693-0.307C355.297,21.137,355.452,20.445,356.069,20.058L356.069,20.058z M358.841,24.449
	L358.841,24.449c0.541-0.384,1.313-0.23,1.696,0.386c0.307,0.54,0.155,1.31-0.383,1.618c-0.541,0.384-1.313,0.229-1.696-0.309
	C358.072,25.528,358.303,24.835,358.841,24.449L358.841,24.449z M361.616,28.84L361.616,28.84c0.538-0.384,1.31-0.231,1.693,0.387
	c0.31,0.539,0.155,1.308-0.384,1.617c-0.537,0.385-1.31,0.231-1.695-0.309C360.92,29.92,361.075,29.149,361.616,28.84L361.616,28.84
	z M364.389,33.231L364.389,33.231c0.541-0.384,1.31-0.229,1.695,0.386c0.384,0.539,0.152,1.31-0.386,1.617
	c-0.538,0.386-1.31,0.231-1.696-0.384C363.695,34.311,363.851,33.54,364.389,33.231L364.389,33.231z M367.163,37.624L367.163,37.624
	c0.614-0.386,1.308-0.231,1.693,0.309c0.386,0.615,0.155,1.385-0.386,1.694c-0.538,0.386-1.308,0.231-1.696-0.386
	C366.468,38.702,366.623,37.933,367.163,37.624L367.163,37.624z M369.936,42.015L369.936,42.015
	c0.617-0.386,1.308-0.231,1.696,0.308c0.383,0.618,0.231,1.311-0.389,1.695c-0.538,0.386-1.308,0.231-1.614-0.384
	C369.242,43.093,369.397,42.322,369.936,42.015L369.936,42.015z M372.711,46.407L372.711,46.407
	c0.614-0.386,1.386-0.232,1.693,0.307c0.386,0.617,0.23,1.311-0.387,1.694c-0.538,0.386-1.307,0.232-1.617-0.384
	C372.015,47.485,372.17,46.714,372.711,46.407L372.711,46.407z M375.563,50.721L375.563,50.721c0.537-0.309,1.307-0.154,1.616,0.384
	c0.384,0.619,0.229,1.312-0.31,1.697c-0.617,0.384-1.386,0.231-1.696-0.386C374.79,51.876,374.945,51.104,375.563,50.721
	L375.563,50.721z M378.334,55.111L378.334,55.111c0.541-0.308,1.308-0.154,1.617,0.386c0.386,0.617,0.231,1.31-0.31,1.695
	c-0.614,0.385-1.308,0.154-1.696-0.386C377.563,56.267,377.717,55.497,378.334,55.111z"/>
<radialGradient id="SVGID_12_" cx="373.6377" cy="171.7949" r="14.5906" gradientTransform="matrix(1 0 0 -1 -0.02 207.0947)" gradientUnits="userSpaceOnUse">
	<stop  offset="0" style="stop-color:#B0DFF4"/>
	<stop  offset="0.29" style="stop-color:#3EB2E2"/>
	<stop  offset="0.99" style="stop-color:#004D9B"/>
	<stop  offset="1" style="stop-color:#004D9B"/>
</radialGradient>
<path fill="url(#SVGID_12_)" d="M363.002,18.44c0.384-0.23,1-0.077,1.311,0.309c0.31,0.462,0.155,1.078-0.311,1.387
	c-0.459,0.23-1.076,0.154-1.307-0.309C362.389,19.364,362.54,18.749,363.002,18.44L363.002,18.44z M365.468,22.446L365.468,22.446
	c0.462-0.231,1.079-0.154,1.389,0.309c0.229,0.463,0.152,1.078-0.31,1.311c-0.463,0.308-1.079,0.153-1.308-0.232
	C364.93,23.37,365.081,22.755,365.468,22.446L365.468,22.446z M368.012,26.453L368.012,26.453c0.459-0.231,1.079-0.154,1.386,0.308
	c0.231,0.462,0.152,1.078-0.307,1.31c-0.462,0.308-1.079,0.153-1.387-0.232C367.471,27.376,367.55,26.761,368.012,26.453
	L368.012,26.453z M370.553,30.458L370.553,30.458c0.462-0.23,1.079-0.152,1.311,0.31c0.307,0.461,0.151,1.079-0.231,1.309
	c-0.465,0.309-1.079,0.155-1.386-0.307C370.012,31.384,370.088,30.768,370.553,30.458L370.553,30.458z M373.097,34.465
	L373.097,34.465c0.462-0.309,1.076-0.154,1.308,0.308c0.31,0.462,0.151,1.079-0.308,1.311c-0.386,0.308-1,0.154-1.31-0.309
	C372.479,35.389,372.632,34.772,373.097,34.465L373.097,34.465z M375.638,38.472L375.638,38.472
	c0.462-0.308,1.003-0.154,1.311,0.308c0.307,0.461,0.152,1.001-0.308,1.31c-0.465,0.308-1.003,0.154-1.313-0.308
	C375.021,39.396,375.173,38.78,375.638,38.472L375.638,38.472z M378.18,42.477L378.18,42.477c0.386-0.308,1.003-0.154,1.31,0.31
	c0.307,0.46,0.152,1-0.307,1.308c-0.466,0.309-1.003,0.154-1.311-0.309C377.563,43.325,377.717,42.787,378.18,42.477L378.18,42.477z
	 M380.721,46.483L380.721,46.483c0.389-0.309,1.006-0.154,1.31,0.309c0.234,0.461,0.155,1-0.304,1.308
	c-0.465,0.308-1.082,0.154-1.313-0.308C380.106,47.331,380.262,46.792,380.721,46.483L380.721,46.483z M383.186,50.489
	L383.186,50.489c0.465-0.308,1.079-0.154,1.389,0.309c0.231,0.385,0.155,1.001-0.31,1.31c-0.462,0.309-1.079,0.154-1.311-0.309
	C382.647,51.337,382.803,50.798,383.186,50.489z"/>
<radialGradient id="SVGID_13_" cx="378.75" cy="175.75" r="13.0158" gradientTransform="matrix(1 0 0 -1 -0.02 207.0947)" gradientUnits="userSpaceOnUse">
	<stop  offset="0" style="stop-color:#B0DFF4"/>
	<stop  offset="0.29" style="stop-color:#3EB2E2"/>
	<stop  offset="0.99" style="stop-color:#004D9B"/>
	<stop  offset="1" style="stop-color:#004D9B"/>
</radialGradient>
<path fill="url(#SVGID_13_)" d="M369.242,16.282c0.308-0.23,0.77-0.075,1.004,0.233c0.23,0.307,0.075,0.771-0.234,1
	c-0.307,0.155-0.77,0.078-1-0.229C368.78,16.901,368.933,16.515,369.242,16.282L369.242,16.282z M371.553,19.905L371.553,19.905
	c0.311-0.232,0.77-0.155,0.927,0.231c0.231,0.309,0.152,0.77-0.157,1.001c-0.384,0.155-0.846,0.078-0.997-0.231
	C371.094,20.521,371.167,20.136,371.553,19.905L371.553,19.905z M373.787,23.525L373.787,23.525c0.31-0.231,0.769-0.155,1.003,0.231
	c0.231,0.31,0.076,0.771-0.234,0.925c-0.307,0.231-0.769,0.154-0.997-0.154C373.401,24.142,373.479,23.756,373.787,23.525
	L373.787,23.525z M376.1,27.146L376.1,27.146c0.308-0.23,0.77-0.154,1.001,0.23c0.154,0.31,0.078,0.771-0.231,0.926
	c-0.383,0.23-0.77,0.154-1-0.231C375.638,27.763,375.711,27.3,376.1,27.146L376.1,27.146z M378.334,30.768L378.334,30.768
	c0.383-0.232,0.77-0.154,1,0.231c0.231,0.308,0.155,0.771-0.23,0.922c-0.311,0.232-0.77,0.155-1-0.229
	C377.945,31.384,378.027,30.921,378.334,30.768L378.334,30.768z M380.645,34.388L380.645,34.388c0.31-0.231,0.771-0.154,1.003,0.154
	c0.152,0.385,0.079,0.771-0.231,1.001c-0.307,0.231-0.771,0.155-1.003-0.231C380.183,35.003,380.337,34.542,380.645,34.388
	L380.645,34.388z M382.954,37.933L382.954,37.933c0.308-0.156,0.772-0.077,0.928,0.23c0.228,0.384,0.151,0.77-0.231,1.001
	c-0.307,0.23-0.771,0.153-0.927-0.231C382.492,38.625,382.571,38.164,382.954,37.933L382.954,37.933z M385.188,41.552
	L385.188,41.552c0.311-0.154,0.772-0.076,1.003,0.232c0.231,0.385,0.079,0.77-0.23,1.003c-0.308,0.229-0.772,0.076-1.003-0.233
	C384.806,42.247,384.882,41.784,385.188,41.552L385.188,41.552z M387.502,45.174L387.502,45.174c0.31-0.153,0.769-0.077,0.924,0.232
	c0.231,0.308,0.152,0.769-0.155,1.001c-0.383,0.23-0.769,0.076-1-0.232C387.04,45.867,387.115,45.406,387.502,45.174z"/>
<radialGradient id="SVGID_14_" cx="383.2852" cy="180.1396" r="11.4322" gradientTransform="matrix(1 0 0 -1 -0.02 207.0947)" gradientUnits="userSpaceOnUse">
	<stop  offset="0" style="stop-color:#B0DFF4"/>
	<stop  offset="0.29" style="stop-color:#3EB2E2"/>
	<stop  offset="0.99" style="stop-color:#004D9B"/>
	<stop  offset="1" style="stop-color:#004D9B"/>
</radialGradient>
<path fill="url(#SVGID_14_)" d="M374.945,13.663c0.151-0.154,0.459-0.076,0.617,0.155c0.148,0.23,0.075,0.54-0.158,0.617
	c-0.231,0.154-0.459,0.076-0.614-0.154C374.635,14.126,374.714,13.818,374.945,13.663L374.945,13.663z M376.948,16.901
	L376.948,16.901c0.23-0.154,0.459-0.079,0.614,0.153c0.154,0.232,0.078,0.461-0.155,0.616c-0.152,0.155-0.459,0.078-0.614-0.155
	C376.641,17.362,376.714,17.054,376.948,16.901L376.948,16.901z M378.951,20.136L378.951,20.136c0.231-0.154,0.538-0.078,0.69,0.154
	c0.079,0.231,0,0.461-0.152,0.615c-0.231,0.154-0.538,0.077-0.696-0.154C378.717,20.521,378.717,20.29,378.951,20.136
	L378.951,20.136z M381.03,23.37L381.03,23.37c0.152-0.152,0.462-0.076,0.617,0.155c0.152,0.231,0.079,0.463-0.155,0.617
	c-0.23,0.153-0.538,0.077-0.617-0.154C380.721,23.756,380.799,23.525,381.03,23.37L381.03,23.37z M383.033,26.606L383.033,26.606
	c0.229-0.153,0.462-0.076,0.617,0.154c0.152,0.154,0.076,0.462-0.155,0.615c-0.233,0.155-0.462,0.078-0.616-0.153
	C382.724,26.992,382.803,26.683,383.033,26.606L383.033,26.606z M385.036,29.843L385.036,29.843
	c0.231-0.155,0.541-0.078,0.617,0.154c0.152,0.154,0.076,0.461-0.076,0.617c-0.233,0.154-0.541,0.076-0.695-0.156
	C384.806,30.228,384.806,29.92,385.036,29.843L385.036,29.843z M387.115,33.08L387.115,33.08c0.155-0.155,0.463-0.078,0.614,0.076
	c0.158,0.23,0.082,0.539-0.151,0.693c-0.231,0.076-0.538,0.076-0.614-0.154C386.809,33.464,386.885,33.155,387.115,33.08
	L387.115,33.08z M389.119,36.237L389.119,36.237c0.23-0.077,0.465-0.077,0.617,0.154c0.151,0.23,0.078,0.539-0.152,0.692
	c-0.234,0.078-0.465,0-0.617-0.153C388.809,36.698,388.888,36.392,389.119,36.237L389.119,36.237z M391.122,39.473L391.122,39.473
	c0.23-0.077,0.538-0.077,0.617,0.154c0.151,0.231,0.076,0.538-0.079,0.616c-0.229,0.154-0.538,0.076-0.693-0.078
	C390.894,39.935,390.894,39.627,391.122,39.473z"/>
</svg>
