<svg xmlns="http://www.w3.org/2000/svg" viewBox="0 0 227.75 120.29"><defs><style>.cls-1{fill:#d52b1e;}.cls-2{fill:#da4438;}.cls-3{fill:#de5e54;}.cls-4{fill:#fff;}.cls-5{fill:#e26a61;}</style></defs><title>suiza</title><g id="Capa_2" data-name="Capa 2"><g id="Capa_1-2" data-name="Capa 1"><path class="cls-1" d="M227.75.11V120.18H0V.11Zm-125,71.51c.13.16.07.35.07.52v25.1c0,.63-.08.55.57.55h21.49a.06.06,0,0,0,.1,0c.12-.16.06-.35.06-.52V72.17c0-.18,0-.37,0-.55l.09-.06h25.19c.67,0,.57.07.57-.59V49.64c0-.7.1-.61-.59-.61H125.61c-.63,0-.56.1-.56-.55V23.38c0-.67.09-.59-.57-.59H103.4c-.65,0-.57-.09-.57.55V48.48c0,.63.08.55-.56.55h-25c-.23,0-.35,0-.31.3a1.62,1.62,0,0,1,0,.22V71.09c0,.16,0,.31,0,.46s.06,0,.1,0h25.59Z"/><path class="cls-2" d="M227.75.11H0S0,0,.05,0H227.34C227.47,0,227.64-.08,227.75.11Z"/><path class="cls-3" d="M0,120.18H227.75s0,.09-.05.09H.41C.28,120.26.11,120.37,0,120.18Z"/><path class="cls-4" d="M77,71.55c0-.15,0-.3,0-.46V49.55a1.62,1.62,0,0,0,0-.22c0-.25.08-.33.31-.3h25c.64,0,.56.08.56-.55V23.34c0-.64-.08-.55.57-.55h21.08c.66,0,.57-.08.57.59v25.1c0,.65-.07.55.56.55h24.73c.69,0,.59-.09.59.61V71c0,.66.1.59-.57.59H125.17c-.06,0-.09,0-.09.06s0,.37,0,.55V97.25c0,.17.06.36-.06.52l-.1,0H103.4c-.65,0-.57.08-.57-.55V72.14c0-.17.06-.36-.07-.52s0-.08-.09-.06H77Z"/><path class="cls-3" d="M77,71.55h.1S77,71.6,77,71.55Z"/><path class="cls-3" d="M102.67,71.56c.06,0,.08,0,.09.06Z"/><path class="cls-3" d="M125.08,71.62c0-.07,0-.08.09-.06Z"/><path class="cls-5" d="M124.89,97.8l.1,0A.06.06,0,0,1,124.89,97.8Z"/></g></g></svg>